**ABCDEFGHIJKLMNOPQRSTUVWXYZabcdefghijklmnopqrstuvwxyz**************************
**PARASOLID !"#$%&'()*+,-./:;<=>?@[\]^_`{|}~0123456789**************************
**PART1;
MC=unknown;
MC_MODEL=unknown;
MC_ID=unknown;
OS=unknown;
OS_RELEASE=unknown;
FRU=Software Cradle Co.,Ltd.;
APPL=NPR;
SITE=unknown;
USER=unknown;
FORMAT=text;
GUISE=transmit;
GUISE=transmit;
DATE=unknown;
**PART2;
SCH=SCH_2600139_25001;
USFLD_SIZE=0;
**PART3;
**END_OF_HEADER*****************************************************************
T51 : TRANSMIT FILE created by modeller version 260013923 SCH_2600139_25001_1300
6189 0 74 4 CI16 index_map_offset0 0 1 dCCZ17 1 17 0 0 2 3 4 5 6 7 8 9 10 11 12
 13 14 15 16 17 18 10 255 2 2 19 20 0 0 21 0 0 1e3 1e-8 0 22 3 1 0 1 0 10 3 2 23
 24 0 0 25 0 0 1e3 1e-8 0 2 4 1 0 1 0 10 4 2 26 27 0 0 28 0 0 1e3 1e-8 0 3 5 1 0
 1 0 10 5 2 29 30 0 0 31 0 0 1e3 1e-8 0 4 6 1 0 1 0 10 6 2 32 33 0 0 34 0 0 1e3
 1e-8 0 5 7 1 0 1 0 10 7 2 35 36 0 0 37 0 0 1e3 1e-8 0 6 8 1 0 1 0 10 8 2 38 39
 0 0 40 0 0 1e3 1e-8 0 7 9 1 0 1 0 10 9 2 41 42 0 0 43 0 0 1e3 1e-8 0 8 10 1 0 1
 0 10 10 2 44 45 0 0 46 0 0 1e3 1e-8 0 9 11 1 0 1 0 10 11 2 47 48 0 0 49 0 0 1e3
 1e-8 0 10 12 1 0 1 0 10 12 2 50 51 0 0 52 0 0 1e3 1e-8 0 11 13 1 0 1 0 10 13 2
 53 54 0 0 55 0 0 1e3 1e-8 0 12 14 1 0 1 0 10 14 2 56 57 0 0 58 0 0 1e3 1e-8 0 1
3 15 1 0 1 0 10 15 2 59 60 0 0 61 0 0 1e3 1e-8 0 14 16 1 0 1 0 10 16 2 62 63 0 0
 64 0 0 1e3 1e-8 0 15 17 1 0 1 0 10 17 2 65 66 0 0 67 0 0 1e3 1e-8 0 16 18 1 0 1
 0 10 18 2 68 69 0 0 70 0 0 1e3 1e-8 0 17 0 1 0 1 0 81 255 1 68 2 71 18 0 0 0 0
 72 70 11 CI9 list_type0 0 1 uI10 notransmit0 0 1 lCCCDCCDI12 finger_index0 0 1
 dI12 finger_block1012 0 CZ69 0 4 T18 0 0 1 20 1 73 73 31 255 70 1 0 18 0 0 0 +.
111732050808 120038527729e-28 0 -1 -401706538691e-27 143651189447e-26 -401706538
691e-27 1 0 .08 74 20 73 1 0 0 68 0 0 0 0 0 0 0 0 0 0 0 0 0 0 0 0 0 0 0 80 255 1
 71 74 75 9000 0 0 0 0 3 5 0 0 0 TFFFFFFFFFFFFF1 82 255 1 72 16 79 255 23 75 CAD
thru/STEPIndexString81 1 65 2 71 17 0 0 0 0 76 70 66 0 4 T17 0 0 1 20 1 77 77 31
 67 1 0 17 0 0 0 +.111732050808 120038527729e-28 0 -1 -401706538691e-27 14365118
9447e-26 -401706538691e-27 1 0 .08 74 20 77 1 0 0 65 0 0 0 0 0 0 0 0 0 0 0 0 0 0
 0 0 0 0 0 82 1 76 15 81 1 62 2 71 16 0 0 0 0 78 70 63 0 4 T16 0 0 1 20 1 79 79
 31 64 1 0 16 0 0 0 +.111732050808 120038527729e-28 0 -1 -401706538691e-27 14365
1189447e-26 -401706538691e-27 1 0 .08 74 20 79 1 0 0 62 0 0 0 0 0 0 0 0 0 0 0 0
 0 0 0 0 0 0 0 82 1 78 14 81 1 59 2 71 15 0 0 0 0 80 70 60 0 4 T15 0 0 1 20 1 81
 81 31 61 1 0 15 0 0 0 +.111732050808 120038527729e-28 0 -1 -401706538691e-27 14
3651189447e-26 -401706538691e-27 1 0 .08 74 20 81 1 0 0 59 0 0 0 0 0 0 0 0 0 0 0
 0 0 0 0 0 0 0 0 82 1 80 13 81 1 56 2 71 14 0 0 0 0 82 70 57 0 4 T14 0 0 1 20 1
 83 83 31 58 1 0 14 0 0 0 +.111732050808 120038527729e-28 0 -1 -401706538691e-27
 143651189447e-26 -401706538691e-27 1 0 .08 74 20 83 1 0 0 56 0 0 0 0 0 0 0 0 0
 0 0 0 0 0 0 0 0 0 0 82 1 82 12 81 1 53 2 71 13 0 0 0 0 84 70 54 0 4 T13 0 0 1 2
0 1 85 85 31 55 1 0 13 0 0 0 +.111732050808 120038527729e-28 0 -1 -401706538691e
-27 143651189447e-26 -401706538691e-27 1 0 .08 74 20 85 1 0 0 53 0 0 0 0 0 0 0 0
 0 0 0 0 0 0 0 0 0 0 0 82 1 84 11 81 1 50 2 71 12 0 0 0 0 86 70 51 0 4 T12 0 0 1
 20 1 87 87 31 52 1 0 12 0 0 0 +.111732050808 120038527729e-28 0 -1 -40170653869
1e-27 143651189447e-26 -401706538691e-27 1 0 .08 74 20 87 1 0 0 50 0 0 0 0 0 0 0
 0 0 0 0 0 0 0 0 0 0 0 0 82 1 86 10 81 1 47 2 71 11 0 0 0 0 88 70 48 0 4 T11 0 0
 1 20 1 89 89 31 49 1 0 11 0 0 0 +.111732050808 120038527729e-28 0 -1 -401706538
691e-27 143651189447e-26 -401706538691e-27 1 0 .08 74 20 89 1 0 0 47 0 0 0 0 0 0
 0 0 0 0 0 0 0 0 0 0 0 0 0 82 1 88 9 81 1 44 2 71 10 0 0 0 0 90 70 45 0 4 T10 0
 0 1 20 1 91 91 31 46 1 0 10 0 0 0 +.111732050808 710542735758e-29 189831488232e
-40 -1 100474552487e-41 164092815905e-25 100474552487e-41 1 0 .08 74 20 91 1 0 0
 44 0 0 0 0 0 0 0 0 0 0 0 0 0 0 0 0 0 0 0 82 1 90 8 81 1 41 2 71 9 0 0 0 0 92 70
 42 0 4 T9 0 0 1 20 1 93 93 31 43 1 0 9 0 0 0 +.111732050808 710542735758e-29 18
9831488232e-40 -1 100474552487e-41 164092815905e-25 100474552487e-41 1 0 .08 74
 20 93 1 0 0 41 0 0 0 0 0 0 0 0 0 0 0 0 0 0 0 0 0 0 0 82 1 92 7 81 1 38 2 71 8 0
 0 0 0 94 70 39 0 4 T8 0 0 1 20 1 95 95 31 40 1 0 8 0 0 0 +.111732050808 7105427
35758e-29 189831488232e-40 -1 100474552487e-41 164092815905e-25 100474552487e-41
 1 0 .08 74 20 95 1 0 0 38 0 0 0 0 0 0 0 0 0 0 0 0 0 0 0 0 0 0 0 82 1 94 6 81 1
 35 2 71 7 0 0 0 0 96 70 36 0 4 T7 0 0 1 20 1 97 97 31 37 1 0 7 0 0 0 +.11173205
0808 710542735758e-29 189831488232e-40 -1 100474552487e-41 164092815905e-25 1004
74552487e-41 1 0 .08 74 20 97 1 0 0 35 0 0 0 0 0 0 0 0 0 0 0 0 0 0 0 0 0 0 0 82
 1 96 5 81 1 32 2 71 6 0 0 0 0 98 70 33 0 4 T6 0 0 1 20 1 99 99 31 34 1 0 6 0 0
 0 +.111732050808 710542735758e-29 189831488232e-40 -1 100474552487e-41 16409281
5905e-25 100474552487e-41 1 0 .08 74 20 99 1 0 0 32 0 0 0 0 0 0 0 0 0 0 0 0 0 0
 0 0 0 0 0 82 1 98 4 81 1 29 2 71 5 0 0 0 0 100 70 30 0 4 T5 0 0 1 20 1 101 101
 31 31 1 0 5 0 0 0 +.111732050808 710542735758e-29 189831488232e-40 -1 100474552
487e-41 164092815905e-25 100474552487e-41 1 0 .08 74 20 101 1 0 0 29 0 0 0 0 0 0
 0 0 0 0 0 0 0 0 0 0 0 0 0 82 1 100 3 81 1 26 2 71 4 0 0 0 0 102 70 27 0 4 T4 0
 0 1 20 1 103 103 31 28 1 0 4 0 0 0 +.111732050808 710542735758e-29 189831488232
e-40 -1 100474552487e-41 164092815905e-25 100474552487e-41 1 0 .08 74 20 103 1 0
 0 26 0 0 0 0 0 0 0 0 0 0 0 0 0 0 0 0 0 0 0 82 1 102 2 81 1 23 2 71 3 0 0 0 0 10
4 70 24 0 4 T3 0 0 1 20 1 105 105 31 25 1 0 3 0 0 0 +.111732050808 120038527729e
-28 0 -1 -401706538691e-27 143651189447e-26 -401706538691e-27 1 0 .08 74 20 105
 1 0 0 23 0 0 0 0 0 0 0 0 0 0 0 0 0 0 0 0 0 0 0 82 1 104 1 81 1 19 2 71 2 0 0 0
 0 106 70 20 0 4 T2 0 0 1 20 1 107 107 31 21 1 0 2 0 0 0 +.11 -17763568394e-27 2
84217094304e-28 1 -100474552487e-41 -164092815905e-25 100474552487e-41 1 0 .077
 74 20 107 1 0 0 19 0 0 0 0 0 0 0 0 0 0 0 0 0 0 0 0 0 0 0 82 1 106 0 1 0 
