**ABCDEFGHIJKLMNOPQRSTUVWXYZabcdefghijklmnopqrstuvwxyz**************************
**PARASOLID !"#$%&'()*+,-./:;<=>?@[\]^_`{|}~0123456789**************************
**PART1;
MC=unknown;
MC_MODEL=unknown;
MC_ID=unknown;
OS=unknown;
OS_RELEASE=unknown;
FRU=Software Cradle Co.,Ltd.;
APPL=NPR;
SITE=unknown;
USER=unknown;
FORMAT=text;
GUISE=transmit;
GUISE=transmit;
DATE=unknown;
**PART2;
SCH=SCH_2600139_25001;
USFLD_SIZE=0;
**PART3;
**END_OF_HEADER*****************************************************************
T51 : TRANSMIT FILE created by modeller version 260013923 SCH_2600139_25001_1300
6189 0 74 4 CI16 index_map_offset0 0 1 dCCZ3 1 3 0 0 2 3 4 10 255 2 2 5 6 0 0 7
 0 0 1e3 1e-8 0 8 3 1 0 1 0 10 3 2 9 10 0 0 11 0 0 1e3 1e-8 0 2 4 1 0 1 0 10 4 2
 12 13 0 0 14 0 0 1e3 1e-8 0 3 0 1 0 1 0 81 255 1 12 2 15 4 0 0 0 0 16 70 11 CI9
 list_type0 0 1 uI10 notransmit0 0 1 lCCCDCCDI12 finger_index0 0 1 dI12 finger_b
lock1012 0 CZ13 0 4 T4 0 0 1 20 1 17 17 134 255 14 1 0 4 0 0 0 +18 19 136 255 18
 5 12 3 4 1 FFF7 20 21 22 135 255 19 2 0 45 255 36 20 180411241502e-29 -.013 -.2
04299999999 901731718097e-16 -.013 -.204209826828 .000180356746406 -.01299921815
38 -.204119668057 .000268256752424 -.0129976126132 -.204031792678 .0004249505877
3 -.012993601404 -.203875095254 .000570552628504 -.0129877575469 -.203729451369
 .000635884280012 -.0129847734367 -.203664106074 .000755846411395 -.012978415050
9 -.203544146467 .000884668175275 -.0129699871379 -.203415331922 .00093137178053
9 -.0129667230771 -.203368629902 .000978578107246 -.0129632027913 -.203321421892
 .00102577729178 -.0129594668466 -.203274222708 127 255 4 21 6 3 3 6 128 255 4 2
2 0 .835237193692 1.63008807318 2.0679590321 74 20 17 1 0 0 12 0 0 0 0 0 0 0 0 0
 0 0 0 0 0 0 0 0 0 0 80 255 1 15 23 24 9000 0 0 0 0 3 5 0 0 0 TFFFFFFFFFFFFF1 82
 255 1 16 2 79 255 23 24 CADthru/STEPIndexString81 1 9 2 15 3 0 0 0 0 25 70 10 0
 4 T3 0 0 1 20 1 26 26 134 11 1 0 3 0 0 0 +27 28 136 27 5 12 3 4 6 FFF7 29 30 31
 135 28 2 0 45 36 29 -.00102577729178 -.0129594668466 -.203274222708 -.000978580
764498 -.012963202581 -.203321419235 -.000931377095475 -.0129667226808 -.2033686
24587 -.000884676011219 -.012969986591 -.203415324086 -.000755856834356 -.012978
4144364 -.203544136051 -.000635893694468 -.0129847729963 -.203664096675 -.000570
554898964 -.0129877574936 -.203729449114 -.000424943634737 -.0129936016778 -.203
875102211 -.000268246600646 -.0129976128265 -.204031802826 -.000180350634448 -.0
129992182068 -.204119674169 -901701155363e-16 -.013 -.204209829884 -8881784197e-
28 -.013 -.204299999999 127 4 30 6 3 3 6 128 4 31 0 .43785864022 1.232720383591
 2.06795279327 74 20 26 1 0 0 9 0 0 0 0 0 0 0 0 0 0 0 0 0 0 0 0 0 0 0 82 1 25 1
 81 1 5 2 15 2 0 0 0 0 32 70 6 0 4 T2 0 0 1 20 1 33 33 134 7 1 0 2 0 0 0 +34 35
 136 34 3 4 3 2 1 FFF7 36 37 38 135 35 2 0 45 12 36 .00102577728249 -.0129594668
473 -.203274222717 .000347810926687 -.0130131297406 -.203370378791 -.00034781092
6687 -.0130131297406 -.203370378791 -.00102577728249 -.0129594668473 -.203274222
717 127 2 37 4 4 128 2 38 0 2.9201067856 74 20 33 1 0 0 5 0 0 0 0 0 0 0 0 0 0 0
 0 0 0 0 0 0 0 0 82 1 32 0 1 0 
